<svg width="666" height="308" viewBox="0 0 666 308" fill="none" xmlns="http://www.w3.org/2000/svg">
<path d="M219.5 1.60839C249.358 1.60839 277.919 17.5179 304.012 46.5412C330.105 75.5642 353.649 117.617 373.441 169.668C413.024 273.762 437.528 417.634 437.528 576.601C437.528 735.567 413.024 879.439 373.441 983.533C353.649 1035.58 330.105 1077.64 304.012 1106.66C277.919 1135.68 249.358 1151.59 219.5 1151.59C189.642 1151.59 161.082 1135.68 134.988 1106.66C108.896 1077.64 85.3519 1035.58 65.559 983.533C25.9761 879.439 1.47264 735.567 1.47263 576.601C1.47262 417.634 25.976 273.762 65.559 169.668C85.3518 117.617 108.896 75.5642 134.988 46.5413C161.081 17.5179 189.642 1.60839 219.5 1.60839Z" stroke="#21BB98" stroke-opacity="0.6" stroke-width="2"/>
<path d="M283.656 1.60839C313.515 1.60839 342.075 17.5179 368.168 46.5412C394.261 75.5642 417.805 117.617 437.598 169.668C477.181 273.762 501.684 417.634 501.684 576.601C501.684 735.567 477.181 879.439 437.598 983.533C417.805 1035.58 394.261 1077.64 368.168 1106.66C342.075 1135.68 313.515 1151.59 283.656 1151.59C253.798 1151.59 225.238 1135.68 199.145 1106.66C173.052 1077.64 149.508 1035.58 129.715 983.533C90.1323 879.439 65.6289 735.567 65.6289 576.601C65.6289 417.634 90.1323 273.762 129.715 169.668C149.508 117.617 173.052 75.5642 199.145 46.5413C225.238 17.5179 253.798 1.60839 283.656 1.60839Z" stroke="#21BB98" stroke-opacity="0.6" stroke-width="2"/>
<path d="M346.805 1.60839C376.663 1.60839 405.224 17.5179 431.317 46.5412C457.409 75.5642 480.953 117.617 500.746 169.668C540.329 273.762 564.832 417.634 564.832 576.601C564.833 735.567 540.329 879.439 500.746 983.533C480.953 1035.58 457.409 1077.64 431.317 1106.66C405.224 1135.68 376.663 1151.59 346.805 1151.59C316.947 1151.59 288.386 1135.68 262.293 1106.66C236.2 1077.64 212.657 1035.58 192.864 983.533C153.281 879.439 128.777 735.567 128.777 576.601C128.777 417.634 153.281 273.762 192.864 169.668C212.657 117.617 236.2 75.5642 262.293 46.5413C288.386 17.5179 316.947 1.60839 346.805 1.60839Z" stroke="#21BB98" stroke-opacity="0.6" stroke-width="2"/>
<path d="M410.953 1.60839C440.812 1.60839 469.372 17.5179 495.465 46.5412C521.558 75.5642 545.102 117.617 564.895 169.668C604.478 273.762 628.981 417.634 628.981 576.601C628.981 735.567 604.478 879.439 564.895 983.533C545.102 1035.58 521.558 1077.64 495.465 1106.66C469.372 1135.68 440.812 1151.59 410.953 1151.59C381.095 1151.59 352.535 1135.68 326.442 1106.66C300.349 1077.64 276.805 1035.58 257.012 983.533C217.429 879.439 192.926 735.567 192.926 576.601C192.926 417.634 217.429 273.762 257.012 169.668C276.805 117.617 300.349 75.5642 326.442 46.5413C352.535 17.5179 381.095 1.60839 410.953 1.60839Z" stroke="#21BB98" stroke-opacity="0.6" stroke-width="2"/>
<path d="M476.11 1.60839C505.968 1.60839 534.528 17.5179 560.621 46.5412C586.714 75.5642 610.258 117.617 630.051 169.668C669.634 273.762 694.137 417.634 694.137 576.601C694.137 735.567 669.634 879.439 630.051 983.533C610.258 1035.58 586.714 1077.64 560.621 1106.66C534.528 1135.68 505.968 1151.59 476.11 1151.59C446.251 1151.59 417.691 1135.68 391.598 1106.66C365.505 1077.64 341.961 1035.58 322.168 983.533C282.585 879.439 258.082 735.567 258.082 576.601C258.082 417.634 282.585 273.762 322.168 169.668C341.961 117.617 365.505 75.5642 391.598 46.5413C417.691 17.5179 446.251 1.60839 476.11 1.60839Z" stroke="#21BB98" stroke-opacity="0.6" stroke-width="2"/>
<path d="M540.266 1.60839C570.124 1.60839 598.685 17.5179 624.778 46.5412C650.87 75.5642 674.414 117.617 694.207 169.668C733.79 273.762 758.293 417.634 758.293 576.601C758.293 735.567 733.79 879.439 694.207 983.533C674.414 1035.58 650.87 1077.64 624.778 1106.66C598.685 1135.68 570.124 1151.59 540.266 1151.59C510.408 1151.59 481.847 1135.68 455.754 1106.66C429.661 1077.64 406.117 1035.58 386.325 983.533C346.742 879.439 322.238 735.567 322.238 576.601C322.238 417.634 346.742 273.762 386.325 169.668C406.117 117.617 429.661 75.5642 455.754 46.5413C481.847 17.5179 510.408 1.60839 540.266 1.60839Z" stroke="#21BB98" stroke-opacity="0.6" stroke-width="2"/>
<path d="M604.414 1.60839C634.273 1.60839 662.833 17.5179 688.926 46.5412C715.019 75.5642 738.563 117.617 758.355 169.668C797.938 273.762 822.442 417.634 822.442 576.601C822.442 735.567 797.938 879.439 758.355 983.533C738.563 1035.58 715.019 1077.64 688.926 1106.66C662.833 1135.68 634.273 1151.59 604.414 1151.59C574.556 1151.59 545.996 1135.68 519.903 1106.66C493.81 1077.64 470.266 1035.58 450.473 983.533C410.89 879.439 386.387 735.567 386.387 576.601C386.387 417.634 410.89 273.762 450.473 169.668C470.266 117.617 493.81 75.5642 519.902 46.5413C545.996 17.5179 574.556 1.60839 604.414 1.60839Z" stroke="#21BB98" stroke-opacity="0.6" stroke-width="2"/>
</svg>
