<svg width="283" height="91" viewBox="0 0 283 91" fill="none" xmlns="http://www.w3.org/2000/svg">
<g clip-path="url(#clip0_700_12225)">
<path d="M84.4294 53.3578C84.5375 52.4051 84.629 51.4358 84.6955 50.4665H81.7595H71.6623H71.0301H69.7659H68.1107H59.3276H57.3814H54.7697H54.4537H42.6929C42.6264 51.4441 42.5349 52.4134 42.4268 53.3743H54.1709C52.8235 65.1215 48.4569 75.162 42.4268 81.2841C35.1075 73.8614 30.2252 60.6728 30.2252 45.6534C30.2252 30.6339 35.1075 17.4453 42.4268 10.0226C48.4569 16.1447 52.8235 26.1853 54.1709 37.9324C54.279 38.8934 54.3788 39.8626 54.4454 40.8402H57.3731H68.1024H69.7326H70.9636H71.0301H81.7595H84.6789C83.9969 30.7831 81.2023 21.4384 76.6194 14.1565C71.1965 5.52422 63.9022 0.760742 56.0839 0.760742C53.7467 0.760742 51.4594 1.19153 49.2553 2.01996C47.0512 1.19153 44.764 0.760742 42.4268 0.760742C40.0896 0.760742 37.8023 1.19153 35.5982 2.01996C33.3941 1.19153 31.1069 0.760742 28.7697 0.760742C20.9597 0.760742 13.6571 5.52422 8.22586 14.1647C2.91939 22.5982 0 33.782 0 45.6617C0 57.5331 2.91939 68.7169 8.22586 77.1503C13.6571 85.7991 20.9597 90.5543 28.778 90.5543C31.1152 90.5543 33.4025 90.1235 35.6066 89.2951C37.8107 90.1235 40.0979 90.5543 42.4351 90.5543C44.7723 90.5543 47.0595 90.1235 49.2636 89.2951C51.4677 90.1235 53.755 90.5543 56.0922 90.5543C63.9105 90.5543 71.2048 85.7908 76.6443 77.1503C80.7781 70.5725 83.4563 62.3214 84.4377 53.3743C84.4294 53.3743 84.4294 53.3661 84.4294 53.3578ZM57.1152 53.3743H59.3276H67.8363C66.0148 69.2056 58.7122 81.9386 49.2636 86.147C47.6334 85.418 46.0615 84.4405 44.581 83.2392C46.2777 81.4995 47.8746 79.4699 49.3302 77.1503C53.4556 70.5725 56.1338 62.3214 57.1152 53.3743ZM27.3142 45.6617C27.3142 57.5331 30.2336 68.7169 35.54 77.1503C36.9956 79.4699 38.5925 81.4995 40.2975 83.2475C38.8087 84.457 37.2451 85.4263 35.6066 86.1553C24.6526 81.2759 16.5765 64.9724 16.5765 45.6617C16.5765 26.351 24.6526 10.0474 35.5982 5.16799C37.2284 5.89701 38.8004 6.86627 40.2892 8.07578C38.5842 9.82377 36.9956 11.8534 35.5317 14.173C30.2336 22.5982 27.3142 33.782 27.3142 45.6617ZM57.1152 37.9407C56.1338 28.9936 53.4556 20.7425 49.3219 14.1647C47.8663 11.8451 46.2694 9.81548 44.5727 8.07578C46.0615 6.86627 47.6251 5.88872 49.2553 5.15971C58.7122 9.36813 66.0148 22.1011 67.828 37.9324H57.1152V37.9407ZM56.0839 3.66853C68.7179 3.66853 79.2477 18.4643 81.485 37.9407H70.9719H70.7723C69.7909 28.9936 67.1127 20.7425 62.979 14.1647C60.1427 9.65808 56.8075 6.2201 53.1478 3.9502C54.1127 3.76794 55.0858 3.66853 56.0839 3.66853ZM42.4268 3.66853C43.4165 3.66853 44.398 3.76794 45.3628 3.9502C44.3564 4.57152 43.3833 5.27569 42.4268 6.07926C41.4786 5.28397 40.4972 4.5798 39.4908 3.9502C40.4556 3.76794 41.437 3.66853 42.4268 3.66853ZM28.7697 87.6465C14.5138 87.6465 2.91939 68.808 2.91939 45.6617C2.91939 22.507 14.5138 3.67682 28.7697 3.67682C29.7595 3.67682 30.7409 3.77623 31.7057 3.95848C28.0544 6.22838 24.7108 9.66637 21.8746 14.173C16.5682 22.6064 13.6488 33.7903 13.6488 45.6617C13.6488 57.5331 16.5682 68.7169 21.8746 77.1503C24.7025 81.6569 28.0461 85.0949 31.7057 87.3648C30.7409 87.5471 29.7678 87.6465 28.7697 87.6465ZM42.4268 87.6465C41.437 87.6465 40.4556 87.5471 39.4908 87.3648C40.4972 86.7435 41.4786 86.0393 42.4268 85.2358C43.375 86.0311 44.3564 86.7352 45.3628 87.3648C44.398 87.5471 43.4165 87.6465 42.4268 87.6465ZM56.0839 87.6465C55.0941 87.6465 54.1127 87.5471 53.1478 87.3648C56.7992 85.0949 60.1427 81.6569 62.979 77.1503C67.1127 70.5725 69.7909 62.3214 70.7723 53.3743H71.6706H81.4934C79.2477 72.8507 68.7096 87.6465 56.0839 87.6465Z" fill="white"/>
<path d="M130.845 27.3893H119.15C117.595 27.3893 116.664 28.3171 116.664 29.8663C116.664 31.4155 117.595 32.3433 119.159 32.3433H128.358V45.6313C128.358 47.9178 127.551 49.8232 125.904 51.4635C124.249 53.1038 122.328 53.8991 120.024 53.8991H115.765C113.461 53.8991 111.54 53.1038 109.885 51.4635C108.23 49.8232 107.431 47.9261 107.431 45.6479V14.2338C107.431 11.9059 108.23 9.97571 109.877 8.3437C111.523 6.70341 113.436 5.90811 115.732 5.90811H119.974C123.484 5.90811 125.921 7.43243 127.451 10.6053C128.175 11.9722 129.439 12.403 130.828 11.7485C131.527 11.4172 131.984 10.9615 132.192 10.3734C132.4 9.78517 132.342 9.13899 132.009 8.43483C130.878 6.14007 129.223 4.29267 127.094 2.9589C124.956 1.62513 122.577 0.954102 120.007 0.954102H115.774C112.122 0.954102 108.953 2.26302 106.358 4.84772C103.763 7.43242 102.449 10.5887 102.449 14.2256V45.5982C102.449 49.235 103.763 52.3913 106.358 54.976C108.953 57.5607 112.122 58.8696 115.774 58.8696H120.007C123.658 58.8696 126.827 57.5607 129.422 54.976C132.017 52.3913 133.332 49.235 133.332 45.5982V29.8746C133.34 28.3171 132.408 27.3893 130.845 27.3893Z" fill="white"/>
<path d="M155.537 16.0967H155.246C151.595 16.0967 148.426 17.4056 145.831 19.9903C143.236 22.575 141.922 25.7313 141.922 29.3681V45.5225C141.922 49.1593 143.236 52.3156 145.831 54.9003C148.426 57.485 151.595 58.794 155.246 58.794H155.537C160.777 58.794 164.72 56.4578 167.232 51.86C167.972 50.5428 167.598 49.267 166.292 48.538C165.593 48.1321 164.928 48.0244 164.312 48.1983C163.705 48.3723 163.214 48.8114 162.857 49.4907C161.26 52.4151 158.864 53.84 155.537 53.84H155.246C152.909 53.84 150.979 53.0447 149.341 51.4127C147.702 49.7806 146.904 47.8504 146.904 45.5308V40.0052H166.367C167.922 40.0052 168.853 39.0773 168.853 37.5282V29.3847C168.853 25.7479 167.539 22.5916 164.944 20.0069C162.349 17.4139 159.189 16.0967 155.537 16.0967ZM155.246 21.059H155.537C157.866 21.059 159.804 21.8543 161.443 23.478C163.081 25.1017 163.88 27.032 163.88 29.3847V35.0429H146.904V29.3847C146.904 27.0402 147.702 25.1017 149.341 23.478C150.979 21.846 152.917 21.059 155.246 21.059Z" fill="white"/>
<path d="M207.196 16.3076C203.412 16.3076 200.36 17.7657 198.122 20.6403C195.877 17.7657 192.832 16.3076 189.048 16.3076C185.871 16.3076 183.118 17.4508 180.855 19.7125C178.593 21.9741 177.445 24.7162 177.445 27.8891V56.1717C177.445 57.7291 178.377 58.6487 179.932 58.6487C181.488 58.6487 182.419 57.7208 182.419 56.1634V27.8228C182.419 25.9754 183.051 24.4511 184.349 23.1753C185.655 21.8912 187.185 21.2699 189.04 21.2699C190.845 21.2699 192.35 21.8912 193.656 23.1753C194.953 24.4594 195.585 25.9754 195.585 27.8228V56.1634C195.585 57.7208 196.534 58.6487 198.106 58.6487C199.619 58.6487 200.559 57.696 200.559 56.1634V27.8228C200.559 25.9754 201.191 24.4511 202.497 23.1753C203.811 21.8912 205.333 21.2699 207.147 21.2699C209.01 21.2699 210.557 21.8912 211.862 23.1753C213.168 24.4511 213.809 25.9754 213.809 27.8228V56.1634C213.809 57.7208 214.74 58.6487 216.296 58.6487C217.851 58.6487 218.783 57.7208 218.783 56.1717V27.8808C218.783 24.7162 217.635 21.9658 215.372 19.7042C213.127 17.4509 210.374 16.3076 207.196 16.3076Z" fill="white"/>
<path d="M244.397 38.0233L235.356 32.6633C233.334 31.4538 232.353 29.7307 232.353 27.3945C232.353 26.8146 232.436 26.2347 232.603 25.6465C232.935 24.4287 233.551 23.4346 234.466 22.5979C235.588 21.6038 236.903 21.1233 238.5 21.1233H238.716C241.485 21.1233 243.656 22.2085 245.378 24.4784C246.326 25.6382 247.632 25.8122 248.896 24.9258C250.152 23.9731 250.327 22.6642 249.37 21.4132C246.7 17.8841 243.124 16.0947 238.757 16.0947H238.541C235.988 16.0947 233.709 16.8486 231.771 18.3315C229.833 19.8144 228.51 21.8275 227.845 24.2962C227.529 25.34 227.371 26.3921 227.371 27.4359C227.371 31.5449 229.192 34.7344 232.802 36.9215L241.843 42.2814C243.881 43.4826 244.879 45.1975 244.879 47.5171C244.879 48.1301 244.796 48.7017 244.629 49.2568C244.288 50.4663 243.681 51.4604 242.766 52.2888C241.644 53.2747 240.329 53.7552 238.732 53.7552H238.516C235.78 53.7552 233.634 52.7113 231.945 50.5657C230.989 49.3231 229.667 49.1491 228.411 50.1018C227.795 50.574 227.437 51.129 227.354 51.7504C227.271 52.3717 227.471 53.0013 227.945 53.6226C230.615 57.0523 234.158 58.792 238.475 58.792H238.691C241.244 58.792 243.523 58.0381 245.461 56.5552C247.399 55.0724 248.722 53.0924 249.395 50.6734C249.703 49.5964 249.861 48.5195 249.861 47.4839C249.861 43.3832 248.023 40.202 244.397 38.0233Z" fill="white"/>
<path d="M115.623 71.5925C116.904 72.5203 117.86 73.7547 118.492 75.3038C119.124 76.853 119.449 78.5596 119.449 80.4235C119.449 82.3538 119.133 84.0852 118.492 85.6178C117.86 87.1504 116.895 88.3765 115.623 89.2794C114.342 90.1824 112.77 90.6381 110.89 90.6381H103.413C103.155 90.6381 102.947 90.5552 102.781 90.3895C102.614 90.2239 102.531 90.0167 102.531 89.7599V71.0871C102.531 70.8303 102.614 70.6232 102.781 70.4575C102.947 70.2918 103.155 70.209 103.413 70.209H110.89C112.77 70.209 114.342 70.6729 115.623 71.5925ZM115.847 86.5705C117.003 85.0047 117.577 82.9585 117.577 80.4235C117.577 78.8495 117.336 77.4246 116.845 76.1488C116.355 74.873 115.589 73.8541 114.542 73.0836C113.494 72.3132 112.179 71.9321 110.599 71.9321H104.386V88.9232H110.599C112.945 88.9232 114.691 88.1362 115.847 86.5705Z" fill="white"/>
<path d="M136.406 82.9249C136.231 83.0906 136.023 83.1735 135.791 83.1735H124.712C124.712 84.3415 124.953 85.3854 125.427 86.3132C125.901 87.241 126.592 87.9701 127.482 88.5003C128.371 89.0305 129.419 89.3038 130.634 89.3038C131.574 89.3038 132.414 89.105 133.154 88.7239C133.894 88.3346 134.493 87.8375 134.942 87.2328C135.158 87.0588 135.366 86.9677 135.558 86.9677C135.757 86.9677 135.932 87.0422 136.09 87.1996C136.248 87.357 136.323 87.531 136.323 87.7215C136.323 87.9369 136.223 88.144 136.032 88.3346C135.408 89.0967 134.618 89.7181 133.67 90.2068C132.721 90.6956 131.723 90.9358 130.667 90.9358C129.162 90.9358 127.831 90.6128 126.683 89.9749C125.527 89.3287 124.629 88.434 123.988 87.2742C123.348 86.1144 123.023 84.7806 123.023 83.2563C123.023 81.6657 123.339 80.2657 123.972 79.0644C124.604 77.8715 125.452 76.9519 126.508 76.3223C127.565 75.6927 128.688 75.3779 129.877 75.3779C131.05 75.3779 132.148 75.6513 133.171 76.1981C134.194 76.7448 135.034 77.5401 135.674 78.5922C136.315 79.6443 136.647 80.887 136.672 82.3285C136.672 82.5604 136.589 82.7592 136.406 82.9249ZM126.725 78.236C125.76 79.0147 125.136 80.1331 124.862 81.5912H134.859V81.3592C134.759 80.4811 134.468 79.7189 133.977 79.0644C133.487 78.41 132.879 77.9129 132.148 77.5733C131.416 77.2336 130.659 77.0596 129.877 77.0596C128.737 77.0679 127.689 77.4573 126.725 78.236Z" fill="white"/>
<path d="M151.977 76.9685C152.826 78.0289 153.25 79.4372 153.25 81.1852V89.7678C153.25 90.0246 153.158 90.2317 152.984 90.3974C152.809 90.563 152.601 90.6459 152.368 90.6459C152.11 90.6459 151.902 90.563 151.736 90.3974C151.57 90.2317 151.486 90.0246 151.486 89.7678V81.2764C151.486 80.0089 151.17 78.9816 150.53 78.1946C149.898 77.4076 148.916 77.0099 147.586 77.0099C146.746 77.0099 145.947 77.2005 145.199 77.5898C144.45 77.9792 143.834 78.5011 143.369 79.1556C142.903 79.81 142.662 80.5142 142.662 81.2764V89.7678C142.662 90.0246 142.579 90.2317 142.412 90.3974C142.246 90.563 142.038 90.6459 141.78 90.6459C141.522 90.6459 141.314 90.563 141.148 90.3974C140.982 90.2317 140.898 90.0246 140.898 89.7678V76.6869C140.898 76.43 140.982 76.2229 141.148 76.0572C141.314 75.8916 141.522 75.8087 141.78 75.8087C142.038 75.8087 142.246 75.8916 142.412 76.0572C142.579 76.2229 142.662 76.43 142.662 76.6869V78.294C143.186 77.4573 143.943 76.7614 144.932 76.2064C145.922 75.6513 146.929 75.3779 147.968 75.3779C149.798 75.3779 151.129 75.9081 151.977 76.9685Z" fill="white"/>
<path d="M161.39 77.4178V87.1933C161.39 87.9306 161.523 88.4359 161.798 88.701C162.072 88.9661 162.43 89.0986 162.879 89.0986C162.996 89.0986 163.145 89.0738 163.32 89.0241C163.495 88.9744 163.636 88.9495 163.728 88.9495C163.902 88.9495 164.052 89.0241 164.185 89.1649C164.31 89.314 164.376 89.4797 164.376 89.6785C164.376 89.9519 164.218 90.1839 163.902 90.3661C163.586 90.5484 163.22 90.6395 162.788 90.6395C162.264 90.6395 161.79 90.5898 161.382 90.4904C160.974 90.391 160.575 90.101 160.193 89.6123C159.81 89.1235 159.619 88.3448 159.619 87.2761V77.4178H157.481C157.248 77.4178 157.049 77.3432 156.882 77.1858C156.716 77.0284 156.633 76.8379 156.633 76.6059C156.633 76.374 156.716 76.1751 156.882 76.026C157.049 75.8686 157.248 75.7941 157.481 75.7941H159.619V72.5549C159.619 72.3064 159.702 72.091 159.868 71.9253C160.035 71.7596 160.243 71.6768 160.5 71.6768C160.758 71.6768 160.966 71.7596 161.132 71.9253C161.299 72.091 161.382 72.2981 161.382 72.5549V75.7941H164.31C164.526 75.7941 164.717 75.8852 164.884 76.0592C165.05 76.2331 165.133 76.4319 165.133 76.6391C165.133 76.871 165.058 77.0616 164.9 77.2107C164.742 77.3598 164.551 77.4261 164.318 77.4261H161.39V77.4178Z" fill="white"/>
<path d="M181.802 75.9934C181.968 76.1674 182.051 76.3828 182.051 76.6396V89.7785C182.051 90.0353 181.968 90.2424 181.802 90.4081C181.636 90.5738 181.428 90.6566 181.17 90.6566C180.92 90.6566 180.704 90.5738 180.538 90.4081C180.371 90.2424 180.288 90.0353 180.288 89.7785V87.8234C179.797 88.7015 179.065 89.4388 178.092 90.0436C177.119 90.6483 176.055 90.9466 174.898 90.9466C173.593 90.9466 172.412 90.6069 171.364 89.9276C170.316 89.2483 169.501 88.3122 168.902 87.1275C168.303 85.9429 168.012 84.6091 168.012 83.1262C168.012 81.6433 168.311 80.3178 168.918 79.1415C169.525 77.9651 170.349 77.0455 171.397 76.3828C172.445 75.72 173.601 75.3887 174.865 75.3887C176.038 75.3887 177.111 75.6703 178.092 76.2337C179.065 76.797 179.806 77.5343 180.288 78.4539V76.6479C180.288 76.3911 180.371 76.1757 180.538 76.0017C180.704 75.8277 180.912 75.7366 181.17 75.7366C181.428 75.7283 181.636 75.8195 181.802 75.9934ZM177.818 88.5027C178.625 87.9642 179.265 87.2269 179.723 86.2825C180.18 85.3381 180.413 84.286 180.413 83.1179C180.413 81.9913 180.18 80.9557 179.723 80.0196C179.265 79.0835 178.625 78.3545 177.818 77.816C177.003 77.2775 176.096 77.0124 175.073 77.0124C174.058 77.0124 173.144 77.2775 172.337 77.7994C171.53 78.3213 170.89 79.0503 170.432 79.9782C169.975 80.906 169.742 81.9498 169.742 83.1179C169.742 84.286 169.966 85.3381 170.415 86.2825C170.865 87.2269 171.497 87.9642 172.303 88.5027C173.11 89.0412 174.033 89.3063 175.073 89.3063C176.088 89.3063 177.003 89.0329 177.818 88.5027Z" fill="white"/>
<path d="M188.943 90.397C188.777 90.5627 188.569 90.6455 188.311 90.6455C188.053 90.6455 187.846 90.5627 187.679 90.397C187.513 90.2313 187.43 90.0242 187.43 89.7674V69.9182C187.43 69.6614 187.513 69.4543 187.679 69.2886C187.846 69.1229 188.053 69.04 188.311 69.04C188.569 69.04 188.777 69.1229 188.943 69.2886C189.11 69.4543 189.193 69.6614 189.193 69.9182V89.7674C189.193 90.0242 189.11 90.2313 188.943 90.397Z" fill="white"/>
<path d="M218.943 70.4575C219.109 70.6232 219.192 70.8386 219.192 71.112V89.7351C219.176 90.0085 219.076 90.2239 218.901 90.3895C218.726 90.5552 218.51 90.6381 218.261 90.6381C218.003 90.6381 217.787 90.5469 217.612 90.373C217.437 90.199 217.346 89.9836 217.346 89.7268V81.0366H205.444V89.7351C205.427 89.9919 205.327 90.199 205.152 90.3813C204.978 90.5552 204.762 90.6464 204.512 90.6464C204.238 90.6464 204.021 90.5635 203.855 90.3978C203.689 90.2321 203.605 90.0167 203.605 89.7434V71.112C203.605 70.8386 203.697 70.6232 203.872 70.4575C204.046 70.2918 204.271 70.209 204.545 70.209C204.803 70.209 205.011 70.3001 205.194 70.4741C205.369 70.6481 205.46 70.8634 205.46 71.112V79.3466H217.362V71.112C217.362 70.8634 217.454 70.6481 217.637 70.4741C217.82 70.3001 218.044 70.209 218.294 70.209C218.56 70.209 218.776 70.2918 218.943 70.4575Z" fill="white"/>
<path d="M237.741 87.1451C237.1 88.3297 236.21 89.2576 235.071 89.9369C233.939 90.6079 232.675 90.9476 231.286 90.9476C229.897 90.9476 228.641 90.6079 227.502 89.9369C226.371 89.2658 225.481 88.338 224.832 87.1451C224.183 85.9604 223.867 84.6349 223.867 83.1769C223.867 81.7189 224.192 80.3934 224.832 79.2087C225.481 78.0241 226.362 77.0879 227.502 76.4086C228.633 75.7293 229.897 75.3896 231.286 75.3896C232.675 75.3896 233.931 75.7293 235.071 76.4086C236.202 77.0879 237.092 78.0241 237.741 79.2087C238.381 80.3934 238.705 81.7189 238.705 83.1769C238.705 84.6349 238.381 85.9604 237.741 87.1451ZM236.218 80.0206C235.728 79.0844 235.054 78.3554 234.181 77.8169C233.307 77.2785 232.351 77.0134 231.295 77.0134C230.238 77.0134 229.282 77.2785 228.425 77.8169C227.568 78.3554 226.886 79.0844 226.387 80.0206C225.888 80.9567 225.639 82.0088 225.639 83.1769C225.639 84.3284 225.888 85.3639 226.387 86.3001C226.886 87.2362 227.56 87.9652 228.425 88.5037C229.282 89.0422 230.247 89.3073 231.295 89.3073C232.351 89.3073 233.316 89.0422 234.181 88.5203C235.046 87.9984 235.728 87.2693 236.218 86.3332C236.709 85.3971 236.95 84.345 236.95 83.1769C236.95 82.0088 236.701 80.9567 236.218 80.0206Z" fill="white"/>
<path d="M263.799 77.2243C264.631 78.3013 265.047 79.7345 265.047 81.499V89.7585C265.047 90.007 264.963 90.2224 264.797 90.3881C264.631 90.5538 264.423 90.6366 264.165 90.6366C263.907 90.6366 263.699 90.5538 263.533 90.3881C263.366 90.2224 263.283 90.0153 263.283 89.7585V81.5819C263.283 80.2978 262.976 79.254 262.36 78.4421C261.745 77.6385 260.796 77.2326 259.507 77.2326C258.684 77.2326 257.91 77.4314 257.178 77.8208C256.446 78.2101 255.856 78.7403 255.407 79.4114C254.958 80.0824 254.733 80.8114 254.733 81.5901V89.7667C254.733 90.0153 254.65 90.2307 254.483 90.3963C254.317 90.562 254.109 90.6449 253.851 90.6449C253.594 90.6449 253.386 90.562 253.219 90.3963C253.053 90.2307 252.97 90.0236 252.97 89.7667V81.5073C252.97 80.2398 252.679 79.2125 252.088 78.4255C251.498 77.6385 250.583 77.2409 249.335 77.2409C248.537 77.2409 247.78 77.4397 247.064 77.8291C246.349 78.2184 245.775 78.7403 245.334 79.3865C244.894 80.041 244.677 80.7451 244.677 81.5073V89.7667C244.677 90.0153 244.594 90.2307 244.428 90.3963C244.261 90.562 244.054 90.6449 243.796 90.6449C243.538 90.6449 243.33 90.562 243.164 90.3963C242.997 90.2307 242.914 90.0236 242.914 89.7667V76.6858C242.914 76.429 242.997 76.2219 243.164 76.0562C243.33 75.8905 243.538 75.8077 243.796 75.8077C244.054 75.8077 244.261 75.8905 244.428 76.0562C244.594 76.2219 244.677 76.429 244.677 76.6858V78.3758C245.21 77.5805 245.917 76.9178 246.815 76.3876C247.713 75.8574 248.661 75.6006 249.659 75.6006C250.791 75.6006 251.772 75.874 252.587 76.4207C253.411 76.9675 253.993 77.7628 254.342 78.8149C254.75 77.9616 255.507 77.2077 256.596 76.5699C257.694 75.932 258.792 75.6089 259.906 75.6089C261.678 75.6089 262.976 76.1474 263.799 77.2243Z" fill="white"/>
<path d="M282.656 82.9252C282.481 83.0909 282.273 83.1737 282.041 83.1737H270.962C270.962 84.3418 271.203 85.3856 271.677 86.3134C272.16 87.2413 272.842 87.9703 273.732 88.5005C274.621 89.039 275.669 89.3041 276.884 89.3041C277.824 89.3041 278.664 89.1053 279.404 88.7242C280.144 88.3348 280.743 87.8378 281.192 87.233C281.408 87.059 281.616 86.9679 281.808 86.9679C281.999 86.9679 282.182 87.0425 282.34 87.1999C282.498 87.3573 282.573 87.5312 282.573 87.7218C282.573 87.9372 282.473 88.1443 282.282 88.3348C281.658 89.097 280.868 89.7183 279.92 90.2071C278.971 90.6958 277.973 90.9361 276.917 90.9361C275.412 90.9361 274.081 90.613 272.933 89.9751C271.777 89.3289 270.879 88.4342 270.238 87.2744C269.598 86.1146 269.273 84.7809 269.273 83.2565C269.273 81.666 269.59 80.2659 270.222 79.0647C270.854 77.8717 271.702 76.9522 272.758 76.3226C273.815 75.693 274.938 75.3782 276.127 75.3782C277.3 75.3782 278.398 75.6516 279.429 76.1983C280.452 76.7451 281.292 77.5404 281.932 78.5925C282.573 79.6446 282.906 80.8872 282.931 82.3287C282.922 82.5607 282.831 82.7595 282.656 82.9252ZM272.966 78.2363C272.002 79.015 271.378 80.1334 271.103 81.5914H281.101V81.3594C281.001 80.4813 280.71 79.7191 280.219 79.0647C279.728 78.4102 279.121 77.9132 278.389 77.5735C277.657 77.2339 276.9 77.0599 276.119 77.0599C274.987 77.0682 273.939 77.4575 272.966 78.2363Z" fill="white"/>
</g>
<defs>
<clipPath id="clip0_700_12225">
<rect width="282.923" height="90.1746" fill="white" transform="translate(0 0.760742)"/>
</clipPath>
</defs>
</svg>
