<svg xmlns="http://www.w3.org/2000/svg" width="145" height="48" viewBox="0 0 145 48" fill="none">
  <g clip-path="url(#clip0_815_2097)">
    <path d="M42.991 27.857C43.0461 27.3676 43.0926 26.8698 43.1265 26.372H41.6315H36.4901H36.1682H35.5244H34.6816H30.2093H29.2183H27.8885H27.7275H21.739C21.7051 26.8741 21.6586 27.3719 21.6035 27.8655H27.5835C26.8974 33.8991 24.674 39.0562 21.6035 42.2007C17.8766 38.3882 15.3905 31.6142 15.3905 23.8998C15.3905 16.1854 17.8766 9.41142 21.6035 5.59892C24.674 8.74338 26.8974 13.9005 27.5835 19.9341C27.6386 20.4277 27.6894 20.9255 27.7233 21.4276H29.2141H34.6774H35.5075H36.1343H36.1682H41.6315H43.1181C42.7708 16.262 41.3478 11.4623 39.0142 7.72218C36.2529 3.28844 32.5387 0.841797 28.5576 0.841797C27.3675 0.841797 26.2029 1.06306 25.0806 1.48856C23.9582 1.06306 22.7936 0.841797 21.6035 0.841797C20.4134 0.841797 19.2488 1.06306 18.1264 1.48856C17.0041 1.06306 15.8395 0.841797 14.6494 0.841797C10.6726 0.841797 6.95412 3.28844 4.18856 7.72643C1.48654 12.058 0 17.8023 0 23.904C0 30.0015 1.48654 35.7458 4.18856 40.0774C6.95412 44.5196 10.6726 46.962 14.6536 46.962C15.8437 46.962 17.0084 46.7408 18.1307 46.3153C19.253 46.7408 20.4177 46.962 21.6077 46.962C22.7978 46.962 23.9625 46.7408 25.0848 46.3153C26.2071 46.7408 27.3718 46.962 28.5618 46.962C32.5429 46.962 36.2571 44.5154 39.0269 40.0774C41.1318 36.6989 42.4955 32.4609 42.9952 27.8655C42.991 27.8655 42.991 27.8612 42.991 27.857ZM29.0828 27.8655H30.2093H34.5419C33.6144 35.9968 29.8959 42.5368 25.0848 44.6984C24.2547 44.3239 23.4543 43.8218 22.7004 43.2048C23.5644 42.3113 24.3775 41.2688 25.1187 40.0774C27.2193 36.6989 28.583 32.4609 29.0828 27.8655ZM13.9082 23.904C13.9082 30.0015 15.3948 35.7458 18.0968 40.0774C18.8379 41.2688 19.6511 42.3113 20.5193 43.2091C19.7612 43.8303 18.965 44.3282 18.1307 44.7026C12.553 42.1964 8.44065 33.8225 8.44065 23.904C8.44065 13.9856 12.553 5.61168 18.1264 3.10547C18.9565 3.47991 19.757 3.97775 20.5151 4.59899C19.6469 5.4968 18.8379 6.53928 18.0926 7.73069C15.3948 12.058 13.9082 17.8023 13.9082 23.904ZM29.0828 19.9384C28.583 15.3429 27.2193 11.1049 25.1144 7.72643C24.3733 6.53502 23.5601 5.49254 22.6962 4.59899C23.4543 3.97775 24.2505 3.47566 25.0806 3.10122C29.8959 5.26277 33.6144 11.8027 34.5376 19.9341H29.0828V19.9384ZM28.5576 2.33531C34.9908 2.33531 40.3525 9.93479 41.4918 19.9384H36.1385H36.0369C35.5371 15.3429 34.1734 11.1049 32.0686 7.72643C30.6244 5.4117 28.9261 3.64586 27.0626 2.47998C27.5539 2.38637 28.0494 2.33531 28.5576 2.33531ZM21.6035 2.33531C22.1075 2.33531 22.6072 2.38637 23.0985 2.47998C22.5861 2.79911 22.0905 3.16079 21.6035 3.57352C21.1207 3.16504 20.6209 2.80336 20.1085 2.47998C20.5998 2.38637 21.0995 2.33531 21.6035 2.33531ZM14.6494 45.4685C7.39034 45.4685 1.48654 35.7926 1.48654 23.904C1.48654 12.0112 7.39034 2.33957 14.6494 2.33957C15.1534 2.33957 15.6531 2.39063 16.1444 2.48424C14.2852 3.65011 12.5826 5.41595 11.1384 7.73069C8.43642 12.0623 6.94988 17.8066 6.94988 23.904C6.94988 30.0015 8.43642 35.7458 11.1384 40.0774C12.5784 42.3921 14.2809 44.158 16.1444 45.3238C15.6531 45.4175 15.1576 45.4685 14.6494 45.4685ZM21.6035 45.4685C21.0995 45.4685 20.5998 45.4175 20.1085 45.3238C20.6209 45.0047 21.1207 44.643 21.6035 44.2303C22.0863 44.6388 22.5861 45.0005 23.0985 45.3238C22.6072 45.4175 22.1075 45.4685 21.6035 45.4685ZM28.5576 45.4685C28.0536 45.4685 27.5539 45.4175 27.0626 45.3238C28.9218 44.158 30.6244 42.3921 32.0686 40.0774C34.1734 36.6989 35.5371 32.4609 36.0369 27.8655H36.4943H41.496C40.3525 37.869 34.9866 45.4685 28.5576 45.4685Z" fill="#5FBF7F"/>
    <path d="M66.6268 14.5172H60.6721C59.8802 14.5172 59.4058 14.9938 59.4058 15.7895C59.4058 16.5852 59.8802 17.0618 60.6764 17.0618H65.3605V23.8868C65.3605 25.0612 64.9497 26.0399 64.1111 26.8824C63.2683 27.7248 62.29 28.1333 61.1168 28.1333H58.9484C57.7753 28.1333 56.797 27.7248 55.9542 26.8824C55.1114 26.0399 54.7048 25.0655 54.7048 23.8953V7.76026C54.7048 6.5646 55.1114 5.57318 55.95 4.73494C56.7885 3.89244 57.7626 3.48396 58.9315 3.48396H61.0914C62.8787 3.48396 64.1196 4.26688 64.8988 5.89656C65.2673 6.59864 65.911 6.8199 66.6183 6.48375C66.9741 6.31355 67.207 6.07953 67.3129 5.77742C67.4187 5.47531 67.3891 5.14342 67.2197 4.78174C66.6437 3.6031 65.8009 2.65423 64.7167 1.96917C63.6283 1.28411 62.417 0.939453 61.1084 0.939453H58.9527C57.0934 0.939453 55.4799 1.61175 54.1585 2.93932C52.8371 4.26688 52.168 5.88805 52.168 7.75601V23.8698C52.168 25.7377 52.8371 27.3589 54.1585 28.6865C55.4799 30.0141 57.0934 30.6863 58.9527 30.6863H61.1084C62.9676 30.6863 64.5812 30.0141 65.9026 28.6865C67.2239 27.3589 67.8931 25.7377 67.8931 23.8698V15.7938C67.8973 14.9938 67.423 14.5172 66.6268 14.5172Z" fill="#5FBF7F"/>
    <path d="M79.1966 8.71777H79.0484C77.1891 8.71777 75.5756 9.39007 74.2542 10.7176C72.9328 12.0452 72.2637 13.6664 72.2637 15.5343V23.8316C72.2637 25.6996 72.9328 27.3207 74.2542 28.6483C75.5756 29.9759 77.1891 30.6482 79.0484 30.6482H79.1966C81.8648 30.6482 83.8722 29.4483 85.1512 27.0867C85.5282 26.4102 85.3376 25.7549 84.6727 25.3805C84.3169 25.172 83.9781 25.1166 83.6647 25.206C83.3555 25.2954 83.1057 25.5209 82.9235 25.8698C82.1104 27.3718 80.8907 28.1037 79.1966 28.1037H79.0484C77.8583 28.1037 76.8757 27.6952 76.0414 26.857C75.2071 26.0187 74.8005 25.0273 74.8005 23.8359V20.9978H84.7108C85.5028 20.9978 85.9771 20.5212 85.9771 19.7255V15.5428C85.9771 13.6749 85.3079 12.0537 83.9866 10.7261C82.6652 9.39432 81.0558 8.71777 79.1966 8.71777ZM79.0484 11.2665H79.1966C80.3825 11.2665 81.3692 11.675 82.2036 12.509C83.0379 13.343 83.4445 14.3344 83.4445 15.5428V18.449H74.8005V15.5428C74.8005 14.3387 75.2071 13.343 76.0414 12.509C76.8757 11.6708 77.8625 11.2665 79.0484 11.2665Z" fill="#5FBF7F"/>
    <path d="M105.503 8.82861C103.576 8.82861 102.021 9.5775 100.882 11.054C99.7386 9.5775 98.1885 8.82861 96.2615 8.82861C94.6437 8.82861 93.2419 9.41581 92.0899 10.5774C90.938 11.7391 90.3535 13.1475 90.3535 14.7771V29.3038C90.3535 30.1037 90.8279 30.5761 91.6198 30.5761C92.4118 30.5761 92.8861 30.0995 92.8861 29.2995V14.7431C92.8861 13.7942 93.208 13.0113 93.8687 12.356C94.5336 11.6965 95.3129 11.3774 96.2573 11.3774C97.1763 11.3774 97.9429 11.6965 98.6078 12.356C99.2685 13.0156 99.5904 13.7942 99.5904 14.7431V29.2995C99.5904 30.0995 100.073 30.5761 100.874 30.5761C101.644 30.5761 102.123 30.0867 102.123 29.2995V14.7431C102.123 13.7942 102.445 13.0113 103.11 12.356C103.779 11.6965 104.554 11.3774 105.477 11.3774C106.426 11.3774 107.214 11.6965 107.879 12.356C108.543 13.0113 108.87 13.7942 108.87 14.7431V29.2995C108.87 30.0995 109.344 30.5761 110.136 30.5761C110.928 30.5761 111.402 30.0995 111.402 29.3038V14.7729C111.402 13.1475 110.818 11.7348 109.666 10.5732C108.522 9.41581 107.12 8.82861 105.503 8.82861Z" fill="#5FBF7F"/>
    <path d="M124.445 19.9808L119.841 17.2278C118.812 16.6066 118.312 15.7215 118.312 14.5216C118.312 14.2238 118.355 13.9259 118.44 13.6238C118.609 12.9983 118.922 12.4877 119.388 12.058C119.96 11.5474 120.629 11.3006 121.442 11.3006H121.552C122.963 11.3006 124.068 11.858 124.945 13.0239C125.428 13.6196 126.092 13.7089 126.736 13.2536C127.376 12.7643 127.465 12.092 126.978 11.4495C125.618 9.63686 123.797 8.71777 121.574 8.71777H121.463C120.163 8.71777 119.003 9.10498 118.016 9.86663C117.029 10.6283 116.356 11.6623 116.017 12.9302C115.856 13.4664 115.776 14.0068 115.776 14.5429C115.776 16.6534 116.703 18.2916 118.541 19.4149L123.145 22.1679C124.182 22.7849 124.691 23.6657 124.691 24.8571C124.691 25.172 124.648 25.4656 124.564 25.7506C124.39 26.3719 124.081 26.8825 123.615 27.308C123.043 27.8143 122.374 28.0611 121.561 28.0611H121.451C120.057 28.0611 118.965 27.525 118.105 26.4229C117.618 25.7847 116.945 25.6953 116.305 26.1847C115.992 26.4272 115.81 26.7123 115.767 27.0314C115.725 27.3505 115.826 27.6739 116.068 27.993C117.427 29.7546 119.232 30.6482 121.43 30.6482H121.54C122.84 30.6482 124 30.261 124.987 29.4993C125.974 28.7377 126.647 27.7207 126.99 26.4783C127.147 25.9251 127.227 25.3719 127.227 24.8401C127.227 22.7338 126.292 21.0999 124.445 19.9808Z" fill="#5FBF7F"/>
    <path d="M58.8732 37.2223C59.5254 37.6989 60.0124 38.3329 60.3343 39.1286C60.6562 39.9243 60.8213 40.8008 60.8213 41.7582C60.8213 42.7496 60.6604 43.6389 60.3343 44.4261C60.0124 45.2132 59.5211 45.843 58.8732 46.3068C58.2209 46.7706 57.4205 47.0046 56.4634 47.0046H52.656C52.5247 47.0046 52.4188 46.9621 52.3341 46.877C52.2494 46.7919 52.207 46.6855 52.207 46.5536V36.9628C52.207 36.8308 52.2494 36.7245 52.3341 36.6394C52.4188 36.5543 52.5247 36.5117 52.656 36.5117H56.4634C57.4205 36.5117 58.2209 36.75 58.8732 37.2223ZM58.9875 44.9154C59.5762 44.1112 59.8684 43.0602 59.8684 41.7582C59.8684 40.9497 59.7456 40.2178 59.4957 39.5626C59.2458 38.9073 58.8562 38.3839 58.3226 37.9882C57.789 37.5925 57.1198 37.3968 56.3151 37.3968H53.1515V46.1238H56.3151C57.5094 46.1238 58.3988 45.7196 58.9875 44.9154Z" fill="#5FBF7F"/>
    <path d="M69.4569 43.0433C69.368 43.1284 69.2621 43.171 69.1435 43.171H63.5023C63.5023 43.7709 63.6251 44.3071 63.8665 44.7836C64.1079 45.2602 64.4595 45.6346 64.9126 45.907C65.3658 46.1793 65.8994 46.3197 66.5177 46.3197C66.9963 46.3197 67.4241 46.2176 67.801 46.0218C68.1779 45.8219 68.4829 45.5666 68.7116 45.2559C68.8217 45.1666 68.9275 45.1198 69.0249 45.1198C69.1266 45.1198 69.2155 45.1581 69.296 45.2389C69.3765 45.3198 69.4146 45.4091 69.4146 45.507C69.4146 45.6176 69.3638 45.724 69.2664 45.8219C68.9487 46.2133 68.5464 46.5324 68.0636 46.7835C67.5808 47.0345 67.0725 47.1579 66.5347 47.1579C65.7681 47.1579 65.0905 46.992 64.506 46.6644C63.9174 46.3325 63.46 45.8729 63.1339 45.2772C62.8078 44.6815 62.6426 43.9964 62.6426 43.2135C62.6426 42.3966 62.8035 41.6775 63.1254 41.0605C63.4473 40.4478 63.8792 39.9754 64.4171 39.6521C64.955 39.3287 65.5267 39.167 66.1323 39.167C66.7295 39.167 67.2885 39.3074 67.8095 39.5882C68.3304 39.8691 68.7581 40.2776 69.0842 40.8179C69.4103 41.3583 69.5798 41.9966 69.5925 42.737C69.5925 42.8561 69.5501 42.9582 69.4569 43.0433ZM64.5272 40.635C64.0359 41.0349 63.7183 41.6094 63.5785 42.3583H68.6692V42.2391C68.6184 41.7881 68.4701 41.3966 68.2203 41.0605C67.9704 40.7243 67.6612 40.469 67.2885 40.2946C66.9158 40.1201 66.5304 40.0308 66.1323 40.0308C65.5521 40.035 65.0185 40.235 64.5272 40.635Z" fill="#5FBF7F"/>
    <path d="M77.3854 39.984C77.8174 40.5286 78.0333 41.252 78.0333 42.1498V46.558C78.0333 46.6899 77.9868 46.7963 77.8978 46.8814C77.8089 46.9665 77.703 47.009 77.5844 47.009C77.4531 47.009 77.3472 46.9665 77.2625 46.8814C77.1778 46.7963 77.1355 46.6899 77.1355 46.558V42.1966C77.1355 41.5456 76.9746 41.0179 76.6484 40.6137C76.3266 40.2095 75.8268 40.0052 75.1492 40.0052C74.7215 40.0052 74.3149 40.1031 73.9337 40.3031C73.5526 40.5031 73.2391 40.7711 73.002 41.1073C72.7648 41.4434 72.642 41.8051 72.642 42.1966V46.558C72.642 46.6899 72.5996 46.7963 72.5149 46.8814C72.4302 46.9665 72.3244 47.009 72.1931 47.009C72.0618 47.009 71.9559 46.9665 71.8712 46.8814C71.7865 46.7963 71.7441 46.6899 71.7441 46.558V39.8393C71.7441 39.7074 71.7865 39.601 71.8712 39.5159C71.9559 39.4308 72.0618 39.3883 72.1931 39.3883C72.3244 39.3883 72.4302 39.4308 72.5149 39.5159C72.5996 39.601 72.642 39.7074 72.642 39.8393V40.6648C72.9088 40.235 73.2942 39.8776 73.7982 39.5925C74.3022 39.3074 74.8146 39.167 75.344 39.167C76.2758 39.167 76.9534 39.4393 77.3854 39.984Z" fill="#5FBF7F"/>
    <path d="M82.1803 40.2134V45.2343C82.1803 45.613 82.2481 45.8726 82.3878 46.0087C82.5276 46.1449 82.7097 46.213 82.9384 46.213C82.9977 46.213 83.0739 46.2002 83.1629 46.1747C83.2518 46.1491 83.3238 46.1364 83.3704 46.1364C83.4593 46.1364 83.5356 46.1747 83.6033 46.247C83.6669 46.3236 83.7007 46.4087 83.7007 46.5108C83.7007 46.6512 83.6203 46.7704 83.4593 46.864C83.2984 46.9576 83.112 47.0044 82.8918 47.0044C82.625 47.0044 82.3836 46.9789 82.1761 46.9278C81.9686 46.8768 81.7653 46.7278 81.5705 46.4768C81.3756 46.2257 81.2782 45.8258 81.2782 45.2769V40.2134H80.1898C80.0712 40.2134 79.9696 40.1751 79.8849 40.0942C79.8002 40.0134 79.7578 39.9155 79.7578 39.7964C79.7578 39.6772 79.8002 39.5751 79.8849 39.4985C79.9696 39.4177 80.0712 39.3794 80.1898 39.3794H81.2782V37.7157C81.2782 37.588 81.3206 37.4774 81.4053 37.3923C81.49 37.3072 81.5959 37.2646 81.7272 37.2646C81.8584 37.2646 81.9643 37.3072 82.049 37.3923C82.1337 37.4774 82.1761 37.5838 82.1761 37.7157V39.3794H83.6669C83.777 39.3794 83.8744 39.4262 83.9591 39.5156C84.0438 39.6049 84.0861 39.707 84.0861 39.8134C84.0861 39.9325 84.048 40.0304 83.9675 40.107C83.8871 40.1836 83.7897 40.2176 83.6711 40.2176H82.1803V40.2134Z" fill="#5FBF7F"/>
    <path d="M92.5727 39.4815C92.6574 39.5709 92.6997 39.6815 92.6997 39.8134V46.5619C92.6997 46.6938 92.6574 46.8002 92.5727 46.8853C92.488 46.9704 92.3821 47.0129 92.2508 47.0129C92.1237 47.0129 92.0136 46.9704 91.9289 46.8853C91.8442 46.8002 91.8019 46.6938 91.8019 46.5619V45.5577C91.552 46.0087 91.1793 46.3874 90.6838 46.698C90.1883 47.0087 89.6462 47.1618 89.0575 47.1618C88.3926 47.1618 87.7912 46.9874 87.2575 46.6385C86.7239 46.2896 86.3089 45.8087 86.0039 45.2003C85.699 44.5918 85.5508 43.9067 85.5508 43.1451C85.5508 42.3834 85.7032 41.7026 86.0124 41.0984C86.3216 40.4942 86.7409 40.0219 87.2745 39.6815C87.8081 39.3411 88.3968 39.1709 89.0405 39.1709C89.6377 39.1709 90.184 39.3156 90.6838 39.6049C91.1793 39.8943 91.5562 40.2729 91.8019 40.7453V39.8177C91.8019 39.6858 91.8442 39.5751 91.9289 39.4858C92.0136 39.3964 92.1195 39.3496 92.2508 39.3496C92.3821 39.3454 92.488 39.3922 92.5727 39.4815ZM90.544 45.9066C90.9548 45.63 91.2809 45.2513 91.5139 44.7663C91.7468 44.2812 91.8654 43.7408 91.8654 43.1408C91.8654 42.5622 91.7468 42.0303 91.5139 41.5495C91.2809 41.0686 90.9548 40.6942 90.544 40.4176C90.129 40.141 89.6673 40.0049 89.1464 40.0049C88.6297 40.0049 88.1639 40.141 87.7531 40.4091C87.3422 40.6772 87.0161 41.0516 86.7832 41.5282C86.5503 42.0047 86.4317 42.5409 86.4317 43.1408C86.4317 43.7408 86.546 44.2812 86.7747 44.7663C87.0034 45.2513 87.3253 45.63 87.7361 45.9066C88.1469 46.1832 88.617 46.3193 89.1464 46.3193C89.6631 46.3193 90.129 46.1789 90.544 45.9066Z" fill="#5FBF7F"/>
    <path d="M96.2083 46.8811C96.1236 46.9662 96.0177 47.0087 95.8864 47.0087C95.7551 47.0087 95.6493 46.9662 95.5645 46.8811C95.4798 46.796 95.4375 46.6896 95.4375 46.5577V36.3627C95.4375 36.2308 95.4798 36.1244 95.5645 36.0393C95.6493 35.9542 95.7551 35.9116 95.8864 35.9116C96.0177 35.9116 96.1236 35.9542 96.2083 36.0393C96.293 36.1244 96.3354 36.2308 96.3354 36.3627V46.5577C96.3354 46.6896 96.293 46.796 96.2083 46.8811Z" fill="#5FBF7F"/>
    <path d="M111.485 36.6394C111.57 36.7245 111.612 36.8351 111.612 36.9755V46.5408C111.604 46.6812 111.553 46.7919 111.464 46.877C111.375 46.9621 111.265 47.0046 111.138 47.0046C111.007 47.0046 110.897 46.9578 110.808 46.8685C110.719 46.7791 110.672 46.6685 110.672 46.5366V42.073H104.612V46.5408C104.603 46.6727 104.552 46.7791 104.464 46.8727C104.375 46.9621 104.264 47.0089 104.137 47.0089C103.998 47.0089 103.888 46.9663 103.803 46.8812C103.718 46.7961 103.676 46.6855 103.676 46.5451V36.9755C103.676 36.8351 103.722 36.7245 103.811 36.6394C103.9 36.5543 104.015 36.5117 104.154 36.5117C104.286 36.5117 104.392 36.5585 104.485 36.6479C104.574 36.7372 104.62 36.8479 104.62 36.9755V41.205H110.681V36.9755C110.681 36.8479 110.727 36.7372 110.82 36.6479C110.914 36.5585 111.028 36.5117 111.155 36.5117C111.291 36.5117 111.401 36.5543 111.485 36.6394Z" fill="#5FBF7F"/>
    <path d="M121.058 45.2088C120.732 45.8172 120.279 46.2938 119.699 46.6427C119.123 46.9874 118.479 47.1618 117.772 47.1618C117.065 47.1618 116.425 46.9874 115.845 46.6427C115.269 46.2981 114.816 45.8215 114.485 45.2088C114.155 44.6003 113.994 43.9195 113.994 43.1706C113.994 42.4217 114.159 41.7409 114.485 41.1325C114.816 40.524 115.265 40.0432 115.845 39.6943C116.421 39.3454 117.065 39.1709 117.772 39.1709C118.479 39.1709 119.119 39.3454 119.699 39.6943C120.275 40.0432 120.728 40.524 121.058 41.1325C121.384 41.7409 121.55 42.4217 121.55 43.1706C121.55 43.9195 121.384 44.6003 121.058 45.2088ZM120.283 41.5495C120.033 41.0686 119.69 40.6942 119.246 40.4176C118.801 40.141 118.314 40.0049 117.776 40.0049C117.238 40.0049 116.751 40.141 116.315 40.4176C115.879 40.6942 115.531 41.0686 115.277 41.5495C115.023 42.0303 114.896 42.5707 114.896 43.1706C114.896 43.7621 115.023 44.294 115.277 44.7748C115.531 45.2556 115.875 45.63 116.315 45.9066C116.751 46.1832 117.242 46.3193 117.776 46.3193C118.314 46.3193 118.805 46.1832 119.246 45.9151C119.686 45.647 120.033 45.2726 120.283 44.7918C120.533 44.311 120.656 43.7706 120.656 43.1706C120.656 42.5707 120.529 42.0303 120.283 41.5495Z" fill="#5FBF7F"/>
    <path d="M134.326 40.1157C134.749 40.6689 134.961 41.405 134.961 42.3113V46.5536C134.961 46.6812 134.919 46.7919 134.834 46.877C134.749 46.9621 134.643 47.0046 134.512 47.0046C134.381 47.0046 134.275 46.9621 134.19 46.877C134.106 46.7919 134.063 46.6855 134.063 46.5536V42.3539C134.063 41.6943 133.907 41.1582 133.593 40.7412C133.28 40.3285 132.797 40.12 132.141 40.12C131.721 40.12 131.327 40.2221 130.955 40.4221C130.582 40.6221 130.281 40.8944 130.053 41.2391C129.824 41.5837 129.71 41.9582 129.71 42.3581V46.5578C129.71 46.6855 129.667 46.7961 129.582 46.8812C129.498 46.9663 129.392 47.0089 129.261 47.0089C129.129 47.0089 129.023 46.9663 128.939 46.8812C128.854 46.7961 128.812 46.6897 128.812 46.5578V42.3156C128.812 41.6646 128.663 41.1369 128.363 40.7327C128.062 40.3285 127.596 40.1242 126.961 40.1242C126.554 40.1242 126.169 40.2264 125.805 40.4263C125.441 40.6263 125.148 40.8944 124.924 41.2263C124.699 41.5624 124.589 41.9241 124.589 42.3156V46.5578C124.589 46.6855 124.547 46.7961 124.462 46.8812C124.378 46.9663 124.272 47.0089 124.14 47.0089C124.009 47.0089 123.903 46.9663 123.818 46.8812C123.734 46.7961 123.691 46.6897 123.691 46.5578V39.8391C123.691 39.7072 123.734 39.6009 123.818 39.5158C123.903 39.4307 124.009 39.3881 124.14 39.3881C124.272 39.3881 124.378 39.4307 124.462 39.5158C124.547 39.6009 124.589 39.7072 124.589 39.8391V40.7072C124.86 40.2987 125.22 39.9583 125.678 39.686C126.135 39.4136 126.618 39.2817 127.126 39.2817C127.702 39.2817 128.202 39.4222 128.617 39.703C129.036 39.9838 129.333 40.3923 129.51 40.9327C129.718 40.4944 130.103 40.1072 130.658 39.7796C131.217 39.4519 131.776 39.286 132.344 39.286C133.246 39.286 133.907 39.5626 134.326 40.1157Z" fill="#5FBF7F"/>
    <path d="M143.928 43.0433C143.839 43.1284 143.733 43.171 143.614 43.171H137.973C137.973 43.7709 138.096 44.3071 138.337 44.7836C138.583 45.2602 138.93 45.6346 139.383 45.907C139.836 46.1835 140.37 46.3197 140.988 46.3197C141.467 46.3197 141.895 46.2176 142.272 46.0218C142.649 45.8219 142.954 45.5666 143.182 45.2559C143.292 45.1666 143.398 45.1198 143.496 45.1198C143.593 45.1198 143.686 45.1581 143.767 45.2389C143.847 45.3198 143.885 45.4091 143.885 45.507C143.885 45.6176 143.834 45.724 143.737 45.8219C143.419 46.2133 143.017 46.5324 142.534 46.7835C142.051 47.0345 141.543 47.1579 141.005 47.1579C140.239 47.1579 139.561 46.992 138.977 46.6644C138.388 46.3325 137.931 45.8729 137.605 45.2772C137.278 44.6815 137.113 43.9964 137.113 43.2135C137.113 42.3966 137.274 41.6775 137.596 41.0605C137.918 40.4478 138.35 39.9754 138.888 39.6521C139.426 39.3287 139.997 39.167 140.603 39.167C141.2 39.167 141.759 39.3074 142.284 39.5882C142.805 39.8691 143.233 40.2776 143.559 40.8179C143.885 41.3583 144.055 41.9966 144.067 42.737C144.063 42.8561 144.017 42.9582 143.928 43.0433ZM138.994 40.635C138.502 41.0349 138.185 41.6094 138.045 42.3583H143.136V42.2391C143.085 41.7881 142.937 41.3966 142.687 41.0605C142.437 40.7243 142.128 40.469 141.755 40.2946C141.382 40.1201 140.997 40.0308 140.599 40.0308C140.023 40.035 139.489 40.235 138.994 40.635Z" fill="#5FBF7F"/>
  </g>
  <defs>
    <clipPath id="clip0_815_2097">
      <rect width="144.063" height="46.316" fill="white" transform="translate(0 0.841797)"/>
    </clipPath>
  </defs>
</svg>