<svg width="153" height="48" viewBox="0 0 153 48" fill="none" xmlns="http://www.w3.org/2000/svg">
<g clip-path="url(#clip0_1097_2252)">
<path d="M45.3377 27.9974C45.3962 27.4903 45.4457 26.9744 45.4816 26.4584H43.8939H38.4335H38.0916H37.4079H36.5129H31.7631H30.7106H29.2983H29.1273H22.7673C22.7313 26.9788 22.6819 27.4947 22.6234 28.0063H28.9744C28.2457 34.2593 25.8844 39.6039 22.6234 42.8627C18.6653 38.9115 16.025 31.8912 16.025 23.8964C16.025 15.9015 18.6653 8.88121 22.6234 4.93009C25.8844 8.18888 28.2457 13.5335 28.9744 19.7865C29.0329 20.298 29.0869 20.814 29.1228 21.3343H30.7061H36.5084H37.3899H38.0556H38.0916H43.8939H45.4726C45.1038 15.9809 43.5925 11.0067 41.1142 7.13055C38.1816 2.5356 34.2369 0 30.0089 0C28.745 0 27.5081 0.229306 26.3162 0.67028C25.1242 0.229306 23.8873 0 22.6234 0C21.3595 0 20.1226 0.229306 18.9306 0.67028C17.7387 0.229306 16.5018 0 15.2379 0C11.0144 0 7.06521 2.5356 4.12809 7.13496C1.25844 11.6241 -0.320312 17.5772 -0.320312 23.9008C-0.320312 30.2199 1.25844 36.1731 4.12809 40.6622C7.06521 45.266 11.0144 47.7972 15.2424 47.7972C16.5063 47.7972 17.7432 47.5679 18.9351 47.1269C20.1271 47.5679 21.364 47.7972 22.6279 47.7972C23.8918 47.7972 25.1287 47.5679 26.3207 47.1269C27.5126 47.5679 28.7495 47.7972 30.0134 47.7972C34.2414 47.7972 38.1861 45.2616 41.1277 40.6622C43.3631 37.1609 44.8115 32.7688 45.3422 28.0063C45.3377 28.0063 45.3377 28.0018 45.3377 27.9974ZM30.5667 28.0063H31.7631H36.3644C35.3794 36.4333 31.4302 43.211 26.3207 45.4512C25.4391 45.0631 24.589 44.5428 23.7883 43.9034C24.7059 42.9773 25.5695 41.8969 26.3566 40.6622C28.5876 37.1609 30.0359 32.7688 30.5667 28.0063ZM14.4507 23.9008C14.4507 30.2199 16.0295 36.1731 18.8991 40.6622C19.6863 41.8969 20.5499 42.9773 21.4719 43.9078C20.6668 44.5516 19.8212 45.0675 18.9351 45.4556C13.0114 42.8583 8.64397 34.1799 8.64397 23.9008C8.64397 13.6217 13.0114 4.94332 18.9306 2.34598C19.8122 2.73404 20.6623 3.24998 21.4674 3.8938C20.5454 4.82425 19.6863 5.90464 18.8946 7.13937C16.0295 11.6241 14.4507 17.5772 14.4507 23.9008ZM30.5667 19.7909C30.0359 15.0284 28.5876 10.6363 26.3521 7.13496C25.565 5.90023 24.7014 4.81984 23.7838 3.8938C24.589 3.24998 25.4346 2.72963 26.3162 2.34157C31.4302 4.58172 35.3794 11.3595 36.3599 19.7865H30.5667V19.7909ZM30.0089 1.54782C36.8412 1.54782 42.5355 9.42361 43.7455 19.7909H38.0601H37.9522C37.4214 15.0284 35.9731 10.6363 33.7377 7.13496C32.2039 4.73606 30.4002 2.90602 28.4212 1.69775C28.9429 1.60074 29.4692 1.54782 30.0089 1.54782ZM22.6234 1.54782C23.1586 1.54782 23.6894 1.60074 24.2111 1.69775C23.6669 2.02848 23.1406 2.40331 22.6234 2.83105C22.1106 2.40772 21.5799 2.03289 21.0356 1.69775C21.5574 1.60074 22.0881 1.54782 22.6234 1.54782ZM15.2379 46.2493C7.52849 46.2493 1.25844 36.2216 1.25844 23.9008C1.25844 11.5756 7.52849 1.55223 15.2379 1.55223C15.7731 1.55223 16.3039 1.60514 16.8256 1.70216C14.851 2.91043 13.0429 4.74047 11.5091 7.13937C8.63947 11.6285 7.06071 17.5816 7.06071 23.9008C7.06071 30.2199 8.63947 36.1731 11.5091 40.6622C13.0384 43.0611 14.8466 44.8911 16.8256 46.0994C16.3039 46.1964 15.7776 46.2493 15.2379 46.2493ZM22.6234 46.2493C22.0881 46.2493 21.5574 46.1964 21.0356 46.0994C21.5799 45.7687 22.1106 45.3939 22.6234 44.9661C23.1362 45.3894 23.6669 45.7643 24.2111 46.0994C23.6894 46.1964 23.1586 46.2493 22.6234 46.2493ZM30.0089 46.2493C29.4737 46.2493 28.9429 46.1964 28.4212 46.0994C30.3957 44.8911 32.2039 43.0611 33.7377 40.6622C35.9731 37.1609 37.4214 32.7688 37.9522 28.0063H38.438H43.75C42.5355 38.3735 36.8367 46.2493 30.0089 46.2493Z" fill="white"/>
<path d="M70.4339 14.175H64.1099C63.2688 14.175 62.765 14.6689 62.765 15.4935C62.765 16.3181 63.2688 16.812 64.1144 16.812H69.089V23.8852C69.089 25.1023 68.6527 26.1166 67.7622 26.9897C66.8671 27.8628 65.8281 28.2861 64.5822 28.2861H62.2792C61.0333 28.2861 59.9943 27.8628 59.0992 26.9897C58.2042 26.1166 57.7724 25.1067 57.7724 23.8941V7.17233C57.7724 5.93319 58.2042 4.90572 59.0947 4.037C59.9853 3.16387 61.0198 2.74054 62.2612 2.74054H64.5552C66.4533 2.74054 67.7712 3.55193 68.5988 5.24086C68.9901 5.96847 69.6738 6.19777 70.4249 5.8494C70.8027 5.67301 71.0501 5.43048 71.1626 5.11739C71.275 4.8043 71.2435 4.46034 71.0636 4.08551C70.4519 2.86401 69.5568 1.88064 68.4054 1.17067C67.2494 0.460704 65.963 0.103516 64.5732 0.103516H62.2837C60.3092 0.103516 58.5955 0.800254 57.1921 2.17609C55.7888 3.55193 55.0781 5.23204 55.0781 7.16792V23.8676C55.0781 25.8035 55.7888 27.4836 57.1921 28.8594C58.5955 30.2353 60.3092 30.932 62.2837 30.932H64.5732C66.5477 30.932 68.2614 30.2353 69.6648 28.8594C71.0681 27.4836 71.7788 25.8035 71.7788 23.8676V15.4979C71.7833 14.6689 71.2795 14.175 70.4339 14.175Z" fill="white"/>
<path d="M83.7849 8.16406H83.6275C81.6529 8.16406 79.9392 8.8608 78.5359 10.2366C77.1325 11.6125 76.4219 13.2926 76.4219 15.2285V23.8275C76.4219 25.7633 77.1325 27.4434 78.5359 28.8193C79.9392 30.1951 81.6529 30.8919 83.6275 30.8919H83.7849C86.6186 30.8919 88.7506 29.6483 90.1089 27.2009C90.5092 26.4998 90.3068 25.8207 89.6007 25.4326C89.2228 25.2165 88.863 25.1592 88.5302 25.2518C88.2018 25.3444 87.9365 25.5781 87.743 25.9397C86.8795 27.4964 85.5841 28.2548 83.7849 28.2548H83.6275C82.3636 28.2548 81.3201 27.8315 80.434 26.9628C79.5479 26.0941 79.1161 25.0666 79.1161 23.8319V20.8906H89.6412C90.4823 20.8906 90.986 20.3967 90.986 19.5721V15.2373C90.986 13.3014 90.2754 11.6213 88.872 10.2455C87.4687 8.86521 85.7595 8.16406 83.7849 8.16406ZM83.6275 10.8055H83.7849C85.0443 10.8055 86.0923 11.2288 86.9784 12.0931C87.8645 12.9574 88.2963 13.9849 88.2963 15.2373V18.2491H79.1161V15.2373C79.1161 13.9893 79.5479 12.9574 80.434 12.0931C81.3201 11.2244 82.3681 10.8055 83.6275 10.8055Z" fill="white"/>
<path d="M111.73 8.27539C109.683 8.27539 108.032 9.0515 106.822 10.5817C105.608 9.0515 103.962 8.27539 101.915 8.27539C100.197 8.27539 98.7082 8.88393 97.4848 10.0878C96.2613 11.2917 95.6406 12.7513 95.6406 14.4402V29.4951C95.6406 30.3241 96.1444 30.8136 96.9855 30.8136C97.8266 30.8136 98.3304 30.3197 98.3304 29.4906V14.4049C98.3304 13.4216 98.6722 12.6102 99.3739 11.9311C100.08 11.2476 100.908 10.9168 101.911 10.9168C102.887 10.9168 103.701 11.2476 104.407 11.9311C105.109 12.6146 105.451 13.4216 105.451 14.4049V29.4906C105.451 30.3197 105.963 30.8136 106.813 30.8136C107.632 30.8136 108.14 30.3064 108.14 29.4906V14.4049C108.14 13.4216 108.482 12.6102 109.188 11.9311C109.899 11.2476 110.722 10.9168 111.703 10.9168C112.71 10.9168 113.547 11.2476 114.253 11.9311C114.959 12.6102 115.305 13.4216 115.305 14.4049V29.4906C115.305 30.3197 115.809 30.8136 116.65 30.8136C117.491 30.8136 117.995 30.3197 117.995 29.4951V14.4358C117.995 12.7513 117.374 11.2872 116.151 10.0834C114.937 8.88393 113.448 8.27539 111.73 8.27539Z" fill="white"/>
<path d="M131.843 19.8347L126.954 16.9816C125.861 16.3378 125.33 15.4205 125.33 14.177C125.33 13.8683 125.375 13.5596 125.465 13.2465C125.645 12.5983 125.978 12.0691 126.473 11.6238C127.08 11.0946 127.791 10.8388 128.654 10.8388H128.771C130.269 10.8388 131.443 11.4165 132.374 12.6248C132.887 13.2421 133.593 13.3347 134.277 12.8629C134.956 12.3558 135.05 11.659 134.533 10.9932C133.089 9.11461 131.155 8.16211 128.794 8.16211H128.677C127.296 8.16211 126.064 8.5634 125.015 9.35274C123.967 10.1421 123.252 11.2136 122.892 12.5278C122.722 13.0834 122.636 13.6434 122.636 14.199C122.636 16.3863 123.621 18.084 125.573 19.2482L130.462 22.1013C131.564 22.7407 132.104 23.6535 132.104 24.8882C132.104 25.2146 132.059 25.5188 131.969 25.8143C131.785 26.4581 131.456 26.9873 130.962 27.4283C130.354 27.953 129.644 28.2088 128.78 28.2088H128.663C127.183 28.2088 126.023 27.6532 125.11 26.511C124.593 25.8496 123.878 25.757 123.198 26.2641C122.866 26.5154 122.672 26.8109 122.627 27.1416C122.582 27.4724 122.69 27.8075 122.946 28.1382C124.39 29.9639 126.306 30.8899 128.641 30.8899H128.758C130.139 30.8899 131.371 30.4886 132.419 29.6993C133.467 28.9099 134.182 27.856 134.547 26.5684C134.713 25.9951 134.798 25.4218 134.798 24.8706C134.798 22.6878 133.804 20.9944 131.843 19.8347Z" fill="white"/>
<path d="M62.2047 37.7032C62.8973 38.1971 63.4146 38.8542 63.7564 39.6788C64.0983 40.5034 64.2737 41.4118 64.2737 42.404C64.2737 43.4315 64.1028 44.3531 63.7564 45.1689C63.4146 45.9847 62.8928 46.6374 62.2047 47.118C61.512 47.5987 60.6619 47.8412 59.6454 47.8412H55.6018C55.4623 47.8412 55.3499 47.7971 55.2599 47.7089C55.17 47.6207 55.125 47.5105 55.125 47.3738V37.4342C55.125 37.2975 55.17 37.1873 55.2599 37.0991C55.3499 37.0109 55.4623 36.9668 55.6018 36.9668H59.6454C60.6619 36.9668 61.512 37.2137 62.2047 37.7032ZM62.3261 45.676C62.9513 44.8426 63.2617 43.7534 63.2617 42.404C63.2617 41.5662 63.1312 40.8077 62.8659 40.1286C62.6005 39.4495 62.1867 38.9071 61.6199 38.497C61.0532 38.0869 60.3425 37.884 59.4879 37.884H56.128V46.9284H59.4879C60.7564 46.9284 61.7009 46.5095 62.3261 45.676Z" fill="white"/>
<path d="M73.4402 43.736C73.3458 43.8242 73.2333 43.8683 73.1074 43.8683H67.1162C67.1162 44.4901 67.2466 45.0457 67.503 45.5396C67.7594 46.0335 68.1327 46.4216 68.614 46.7038C69.0953 46.986 69.662 47.1315 70.3187 47.1315C70.8269 47.1315 71.2812 47.0257 71.6815 46.8228C72.0819 46.6156 72.4057 46.351 72.6486 46.0291C72.7655 45.9365 72.878 45.888 72.9814 45.888C73.0894 45.888 73.1838 45.9277 73.2693 46.0114C73.3548 46.0952 73.3952 46.1878 73.3952 46.2893C73.3952 46.4039 73.3413 46.5142 73.2378 46.6156C72.9005 47.0213 72.4732 47.352 71.9604 47.6122C71.4477 47.8724 70.9079 48.0002 70.3367 48.0002C69.5226 48.0002 68.8029 47.8283 68.1822 47.4887C67.557 47.1447 67.0712 46.6685 66.7249 46.0511C66.3785 45.4338 66.2031 44.7238 66.2031 43.9124C66.2031 43.0657 66.374 42.3205 66.7159 41.6811C67.0577 41.0461 67.5165 40.5566 68.0877 40.2215C68.659 39.8863 69.2662 39.7188 69.9094 39.7188C70.5436 39.7188 71.1373 39.8643 71.6905 40.1553C72.2438 40.4464 72.6981 40.8697 73.0444 41.4297C73.3907 41.9898 73.5707 42.6512 73.5842 43.4185C73.5842 43.542 73.5392 43.6478 73.4402 43.736ZM68.2047 41.2401C67.6829 41.6546 67.3456 42.2499 67.1972 43.0261H72.6036V42.9026C72.5496 42.4351 72.3922 42.0295 72.1268 41.6811C71.8615 41.3327 71.5331 41.0681 71.1373 40.8873C70.7415 40.7065 70.3322 40.6139 69.9094 40.6139C69.2932 40.6183 68.7264 40.8256 68.2047 41.2401Z" fill="white"/>
<path d="M81.8662 40.5654C82.325 41.1299 82.5544 41.8795 82.5544 42.81V47.3785C82.5544 47.5152 82.5049 47.6254 82.4104 47.7136C82.316 47.8018 82.2035 47.8459 82.0776 47.8459C81.9382 47.8459 81.8257 47.8018 81.7357 47.7136C81.6458 47.6254 81.6008 47.5152 81.6008 47.3785V42.8585C81.6008 42.1838 81.4299 41.637 81.0835 41.2181C80.7417 40.7991 80.211 40.5875 79.4913 40.5875C79.037 40.5875 78.6052 40.6889 78.2004 40.8961C77.7956 41.1034 77.4628 41.3812 77.2109 41.7296C76.959 42.078 76.8286 42.4528 76.8286 42.8585V47.3785C76.8286 47.5152 76.7836 47.6254 76.6936 47.7136C76.6037 47.8018 76.4912 47.8459 76.3518 47.8459C76.2123 47.8459 76.0999 47.8018 76.0099 47.7136C75.92 47.6254 75.875 47.5152 75.875 47.3785V40.4155C75.875 40.2788 75.92 40.1685 76.0099 40.0803C76.0999 39.9922 76.2123 39.9481 76.3518 39.9481C76.4912 39.9481 76.6037 39.9922 76.6936 40.0803C76.7836 40.1685 76.8286 40.2788 76.8286 40.4155V41.271C77.1119 40.8256 77.5212 40.4552 78.0565 40.1597C78.5917 39.8643 79.136 39.7188 79.6982 39.7188C80.6877 39.7187 81.4074 40.001 81.8662 40.5654Z" fill="white"/>
<path d="M86.9556 40.804V46.0075C86.9556 46.4 87.0276 46.6689 87.176 46.8101C87.3244 46.9512 87.5178 47.0217 87.7607 47.0217C87.8237 47.0217 87.9047 47.0085 87.9991 46.982C88.0936 46.9556 88.17 46.9424 88.2195 46.9424C88.314 46.9424 88.3949 46.982 88.4669 47.057C88.5344 47.1364 88.5703 47.2246 88.5703 47.3304C88.5703 47.4759 88.4849 47.5994 88.314 47.6964C88.143 47.7934 87.9451 47.8419 87.7112 47.8419C87.4279 47.8419 87.1715 47.8155 86.9511 47.7626C86.7307 47.7096 86.5148 47.5553 86.3079 47.2951C86.101 47.035 85.9976 46.6204 85.9976 46.0516V40.804H84.8416C84.7157 40.804 84.6077 40.7643 84.5177 40.6805C84.4278 40.5967 84.3828 40.4953 84.3828 40.3718C84.3828 40.2484 84.4278 40.1425 84.5177 40.0632C84.6077 39.9794 84.7157 39.9397 84.8416 39.9397H85.9976V38.2155C85.9976 38.0832 86.0425 37.9685 86.1325 37.8803C86.2224 37.7921 86.3349 37.748 86.4743 37.748C86.6138 37.748 86.7262 37.7921 86.8162 37.8803C86.9061 37.9685 86.9511 38.0788 86.9511 38.2155V39.9397H88.5344C88.6513 39.9397 88.7548 39.9882 88.8447 40.0808C88.9347 40.1734 88.9796 40.2792 88.9796 40.3895C88.9796 40.513 88.9392 40.6144 88.8537 40.6938C88.7682 40.7731 88.6648 40.8084 88.5389 40.8084H86.9556V40.804Z" fill="white"/>
<path d="M97.9887 40.0465C98.0787 40.1391 98.1237 40.2538 98.1237 40.3905V47.3843C98.1237 47.521 98.0787 47.6313 97.9887 47.7195C97.8988 47.8077 97.7863 47.8518 97.6469 47.8518C97.512 47.8518 97.395 47.8077 97.3051 47.7195C97.2151 47.6313 97.1701 47.521 97.1701 47.3843V46.3436C96.9047 46.8111 96.5089 47.2035 95.9827 47.5254C95.4564 47.8473 94.8807 48.0061 94.2555 48.0061C93.5493 48.0061 92.9106 47.8253 92.3439 47.4637C91.7772 47.1021 91.3364 46.6038 91.0125 45.9732C90.6887 45.3426 90.5312 44.6326 90.5312 43.8433C90.5312 43.054 90.6932 42.3484 91.0215 41.7222C91.3499 41.096 91.7952 40.6066 92.3619 40.2538C92.9286 39.901 93.5538 39.7246 94.2375 39.7246C94.8717 39.7246 95.4519 39.8745 95.9827 40.1744C96.5089 40.4743 96.9092 40.8667 97.1701 41.3562V40.3949C97.1701 40.2582 97.2151 40.1435 97.3051 40.0509C97.395 39.9583 97.5075 39.9098 97.6469 39.9098C97.7863 39.9054 97.8988 39.9539 97.9887 40.0465ZM95.8343 46.7052C96.2705 46.4186 96.6169 46.0261 96.8643 45.5234C97.1117 45.0207 97.2376 44.4607 97.2376 43.8389C97.2376 43.2392 97.1117 42.688 96.8643 42.1897C96.6169 41.6914 96.2705 41.3033 95.8343 41.0167C95.3935 40.73 94.9032 40.5889 94.35 40.5889C93.8012 40.5889 93.3064 40.73 92.8701 41.0078C92.4339 41.2857 92.0875 41.6737 91.8401 42.1676C91.5928 42.6615 91.4668 43.2171 91.4668 43.8389C91.4668 44.4607 91.5883 45.0207 91.8311 45.5234C92.074 46.0261 92.4159 46.4186 92.8522 46.7052C93.2885 46.9919 93.7877 47.133 94.35 47.133C94.8987 47.133 95.3935 46.9874 95.8343 46.7052Z" fill="white"/>
<path d="M101.858 47.7121C101.768 47.8003 101.655 47.8443 101.516 47.8443C101.376 47.8443 101.264 47.8003 101.174 47.7121C101.084 47.6239 101.039 47.5136 101.039 47.3769V36.8112C101.039 36.6745 101.084 36.5642 101.174 36.476C101.264 36.3878 101.376 36.3438 101.516 36.3438C101.655 36.3438 101.768 36.3878 101.858 36.476C101.948 36.5642 101.993 36.6745 101.993 36.8112V47.3769C101.993 47.5136 101.948 47.6239 101.858 47.7121Z" fill="white"/>
<path d="M118.075 37.0991C118.165 37.1873 118.21 37.3019 118.21 37.4475V47.3605C118.201 47.5061 118.147 47.6207 118.053 47.7089C117.958 47.7971 117.841 47.8412 117.707 47.8412C117.567 47.8412 117.45 47.7927 117.356 47.7001C117.261 47.6075 117.212 47.4928 117.212 47.3561V42.7303H110.775V47.3605C110.766 47.4973 110.712 47.6075 110.618 47.7045C110.523 47.7971 110.406 47.8456 110.272 47.8456C110.123 47.8456 110.006 47.8015 109.916 47.7133C109.826 47.6251 109.781 47.5105 109.781 47.365V37.4475C109.781 37.3019 109.831 37.1873 109.925 37.0991C110.02 37.0109 110.141 36.9668 110.29 36.9668C110.429 36.9668 110.541 37.0153 110.64 37.1079C110.735 37.2005 110.784 37.3152 110.784 37.4475V41.8307H117.221V37.4475C117.221 37.3152 117.27 37.2005 117.369 37.1079C117.468 37.0153 117.59 36.9668 117.725 36.9668C117.868 36.9668 117.985 37.0109 118.075 37.0991Z" fill="white"/>
<path d="M128.245 45.982C127.898 46.6126 127.417 47.1065 126.801 47.4681C126.189 47.8253 125.505 48.0061 124.754 48.0061C124.003 48.0061 123.324 47.8253 122.708 47.4681C122.096 47.1109 121.615 46.617 121.264 45.982C120.913 45.3514 120.742 44.6459 120.742 43.8698C120.742 43.0936 120.918 42.3881 121.264 41.7575C121.615 41.1269 122.092 40.6286 122.708 40.267C123.319 39.9054 124.003 39.7246 124.754 39.7246C125.505 39.7246 126.185 39.9054 126.801 40.267C127.413 40.6286 127.894 41.1269 128.245 41.7575C128.591 42.3881 128.766 43.0936 128.766 43.8698C128.766 44.6459 128.591 45.3514 128.245 45.982ZM127.422 42.1897C127.156 41.6914 126.792 41.3033 126.32 41.0167C125.847 40.73 125.33 40.5889 124.759 40.5889C124.188 40.5889 123.67 40.73 123.207 41.0167C122.744 41.3033 122.375 41.6914 122.105 42.1897C121.835 42.688 121.7 43.248 121.7 43.8698C121.7 44.4827 121.835 45.0339 122.105 45.5322C122.375 46.0305 122.739 46.4186 123.207 46.7052C123.67 46.9919 124.192 47.133 124.759 47.133C125.33 47.133 125.852 46.9919 126.32 46.714C126.787 46.4362 127.156 46.0482 127.422 45.5499C127.687 45.0516 127.817 44.4915 127.817 43.8698C127.817 43.248 127.682 42.688 127.422 42.1897Z" fill="white"/>
<path d="M142.341 40.7002C142.791 41.2735 143.016 42.0364 143.016 42.9757V47.3722C143.016 47.5045 142.971 47.6191 142.881 47.7073C142.791 47.7955 142.678 47.8396 142.539 47.8396C142.4 47.8396 142.287 47.7955 142.197 47.7073C142.107 47.6191 142.062 47.5089 142.062 47.3722V43.0198C142.062 42.3363 141.896 41.7806 141.563 41.3485C141.23 40.9207 140.717 40.7047 140.02 40.7047C139.575 40.7047 139.157 40.8105 138.761 41.0177C138.365 41.225 138.046 41.5072 137.803 41.8644C137.56 42.2216 137.438 42.6097 137.438 43.0242V47.3766C137.438 47.5089 137.393 47.6235 137.303 47.7117C137.213 47.7999 137.101 47.844 136.962 47.844C136.822 47.844 136.71 47.7999 136.62 47.7117C136.53 47.6235 136.485 47.5133 136.485 47.3766V42.9801C136.485 42.3054 136.327 41.7586 136.008 41.3397C135.689 40.9207 135.194 40.7091 134.519 40.7091C134.087 40.7091 133.678 40.8149 133.291 41.0222C132.904 41.2294 132.594 41.5072 132.356 41.8512C132.117 42.1996 132 42.5744 132 42.9801V47.3766C132 47.5089 131.955 47.6235 131.865 47.7117C131.776 47.7999 131.663 47.844 131.524 47.844C131.384 47.844 131.272 47.7999 131.182 47.7117C131.092 47.6235 131.047 47.5133 131.047 47.3766V40.4136C131.047 40.2769 131.092 40.1667 131.182 40.0785C131.272 39.9903 131.384 39.9462 131.524 39.9462C131.663 39.9462 131.776 39.9903 131.865 40.0785C131.955 40.1667 132 40.2769 132 40.4136V41.3132C132.288 40.8899 132.671 40.5371 133.156 40.2549C133.642 39.9726 134.155 39.8359 134.695 39.8359C135.306 39.8359 135.837 39.9815 136.278 40.2725C136.723 40.5635 137.038 40.9869 137.227 41.5469C137.447 41.0927 137.857 40.6914 138.446 40.3519C139.04 40.0123 139.633 39.8403 140.236 39.8403C141.194 39.8403 141.896 40.127 142.341 40.7002Z" fill="white"/>
<path d="M152.534 43.736C152.44 43.8242 152.327 43.8683 152.201 43.8683H146.21C146.21 44.4901 146.34 45.0457 146.597 45.5396C146.858 46.0335 147.226 46.4216 147.708 46.7038C148.189 46.9904 148.756 47.1315 149.412 47.1315C149.921 47.1315 150.375 47.0257 150.775 46.8228C151.176 46.6156 151.499 46.351 151.742 46.0291C151.859 45.9365 151.972 45.888 152.075 45.888C152.179 45.888 152.278 45.9277 152.363 46.0114C152.449 46.0952 152.489 46.1878 152.489 46.2893C152.489 46.4039 152.435 46.5142 152.332 46.6156C151.994 47.0213 151.567 47.352 151.054 47.6122C150.541 47.8724 150.002 48.0002 149.43 48.0002C148.616 48.0002 147.897 47.8283 147.276 47.4887C146.651 47.1447 146.165 46.6685 145.819 46.0511C145.472 45.4338 145.297 44.7238 145.297 43.9124C145.297 43.0657 145.468 42.3205 145.81 41.6811C146.151 41.0461 146.61 40.5566 147.181 40.2215C147.753 39.8863 148.36 39.7188 149.003 39.7188C149.637 39.7188 150.231 39.8643 150.789 40.1553C151.342 40.4464 151.796 40.8697 152.143 41.4297C152.489 41.9898 152.669 42.6512 152.682 43.4185C152.678 43.542 152.628 43.6478 152.534 43.736ZM147.294 41.2401C146.772 41.6546 146.435 42.2499 146.286 43.0261H151.693V42.9026C151.639 42.4351 151.481 42.0295 151.216 41.6811C150.951 41.3327 150.622 41.0681 150.227 40.8873C149.831 40.7065 149.421 40.6139 148.999 40.6139C148.387 40.6183 147.82 40.8256 147.294 41.2401Z" fill="white"/>
</g>
<defs>
<clipPath id="clip0_1097_2252">
<rect width="153" height="48" fill="white"/>
</clipPath>
</defs>
</svg>
