<svg width="213" height="162" viewBox="0 0 213 162" fill="none" xmlns="http://www.w3.org/2000/svg">
<g opacity="0.6">
<g style="mix-blend-mode:multiply">
<path d="M35.7539 182.683C35.7539 283.2 9.93024 364.694 -21.9257 364.694C-53.7816 364.694 -79.6053 283.2 -79.6052 182.683C-79.6052 82.1651 -53.7815 0.671709 -21.9256 0.671714C9.93028 0.69479 35.7539 82.1651 35.7539 182.683Z" fill="#EFF9F2"/>
</g>
<g style="mix-blend-mode:multiply">
<path d="M80.6133 182.683C80.6133 283.2 54.5027 364.694 22.2928 364.694C-9.91705 364.694 -36.0276 283.2 -36.0276 182.683C-36.0276 82.1651 -9.91701 0.671709 22.2929 0.671714C54.5027 0.69479 80.6133 82.1651 80.6133 182.683Z" fill="#EFF9F2"/>
</g>
<g style="mix-blend-mode:multiply">
<path d="M124.195 182.683C124.195 283.2 98.3716 364.694 66.5157 364.694C34.6598 364.694 8.83615 283.2 8.83616 182.683C8.83618 82.1651 34.6599 0.671709 66.5158 0.671714C98.3717 0.69479 124.195 82.1651 124.195 182.683Z" fill="#EFF9F2"/>
</g>
<g style="mix-blend-mode:multiply">
<path d="M169.055 182.683C169.055 283.2 142.944 364.694 110.734 364.694C78.5244 364.694 52.4138 283.2 52.4138 182.683C52.4138 82.1651 78.5244 0.671709 110.734 0.671714C142.944 0.671719 169.055 82.1651 169.055 182.683Z" fill="#EFF9F2"/>
</g>
<g style="mix-blend-mode:multiply">
<path d="M212.637 182.683C212.637 283.2 186.813 364.694 154.957 364.694C123.101 364.694 97.2776 283.2 97.2776 182.683C97.2776 82.1651 123.101 0.671709 154.957 0.671714C186.813 0.671719 212.637 82.1651 212.637 182.683Z" fill="#EFF9F2"/>
</g>
</g>
</svg>
