<svg width="455" height="420" viewBox="0 0 455 420" fill="none" xmlns="http://www.w3.org/2000/svg">
<path d="M0 206.559C0 288.21 19.228 362.705 50.8869 419.112H248.837C280.459 362.705 299.724 288.21 299.724 206.559C299.724 127.742 281.804 55.6443 252.108 0H47.6156C17.9195 55.6443 0 127.778 0 206.559Z" fill="#097064"/>
<path d="M0 206.559C0 288.21 19.228 362.705 50.8869 419.112H248.837C280.459 362.705 299.724 288.21 299.724 206.559C299.724 127.742 281.804 55.6443 252.108 0H47.6156C17.9195 55.6443 0 127.778 0 206.559Z" fill="#AFDAB8"/>
<mask id="mask0_1096_2607" style="mask-type:alpha" maskUnits="userSpaceOnUse" x="0" y="-1" width="455" height="421">
<path d="M0.00976562 206.559C0.00976562 288.209 19.2377 362.704 50.8966 419.111L454.339 419.466L454.418 0.354L47.589 -0.000244141C17.9292 55.644 0.00976562 127.742 0.00976562 206.559Z" fill="#9FD3AA"/>
</mask>
<g mask="url(#mask0_1096_2607)">
<rect width="454.416" height="447.6" rx="8.49011" transform="matrix(-1 0 0 1 454.559 -13.8401)" fill="#D9D9D9"/>
</g>
</svg>
