<svg width="301" height="204" viewBox="0 0 301 204" fill="none" xmlns="http://www.w3.org/2000/svg">
<g opacity="0.6">
<g style="mix-blend-mode:multiply">
<path d="M80.0352 182.576C80.0352 283.094 53.9246 364.587 21.7147 364.587C-10.4952 364.587 -36.6058 283.094 -36.6058 182.576C-36.6057 82.0586 -10.4951 0.565264 21.7147 0.565268C53.9246 0.588344 80.0352 82.0587 80.0352 182.576Z" fill="#EFF9F2"/>
</g>
<g style="mix-blend-mode:multiply">
<path d="M123.615 182.576C123.615 283.094 97.7916 364.587 65.9357 364.587C34.0797 364.587 8.25607 283.094 8.25609 182.576C8.2561 82.0586 34.0798 0.565264 65.9357 0.565269C97.7916 0.588345 123.615 82.0587 123.615 182.576Z" fill="#EFF9F2"/>
</g>
<g style="mix-blend-mode:multiply">
<path d="M168.479 182.576C168.479 283.094 142.368 364.587 110.158 364.587C77.9482 364.587 51.8376 283.094 51.8376 182.576C51.8376 82.0586 77.9482 0.565264 110.158 0.565268C142.368 0.588344 168.479 82.0587 168.479 182.576Z" fill="#EFF9F2"/>
</g>
<g style="mix-blend-mode:multiply">
<path d="M212.059 182.576C212.059 283.094 186.235 364.587 154.379 364.587C122.523 364.587 96.6994 283.094 96.6994 182.576C96.6995 82.0586 122.523 0.565264 154.379 0.565269C186.235 0.588345 212.059 82.0587 212.059 182.576Z" fill="#EFF9F2"/>
</g>
<g style="mix-blend-mode:multiply">
<path d="M256.92 182.576C256.92 283.094 230.809 364.587 198.599 364.587C166.39 364.587 140.279 283.094 140.279 182.576C140.279 82.0586 166.39 0.565264 198.599 0.565268C230.809 0.565273 256.92 82.0587 256.92 182.576Z" fill="#EFF9F2"/>
</g>
<g style="mix-blend-mode:multiply">
<path d="M300.5 182.576C300.5 283.094 274.676 364.587 242.82 364.587C210.964 364.587 185.141 283.094 185.141 182.576C185.141 82.0586 210.965 0.565264 242.82 0.565269C274.676 0.565273 300.5 82.0587 300.5 182.576Z" fill="#EFF9F2"/>
</g>
</g>
</svg>
